<svg width="18" height="18" viewBox="0 0 18 18" fill="none" xmlns="http://www.w3.org/2000/svg">
<path fill-rule="evenodd" clip-rule="evenodd" d="M1.5 9C1.5 4.86 4.86 1.5 9 1.5C13.14 1.5 16.5 4.86 16.5 9C16.5 13.14 13.14 16.5 9 16.5C4.86 16.5 1.5 13.14 1.5 9ZM9.75 12V13.5H8.25V12H9.75ZM9 15C5.6925 15 3 12.3075 3 9C3 5.6925 5.6925 3 9 3C12.3075 3 15 5.6925 15 9C15 12.3075 12.3075 15 9 15ZM6 7.5C6 5.8425 7.3425 4.5 9 4.5C10.6575 4.5 12 5.8425 12 7.5C12 8.46219 11.4075 8.97999 10.8306 9.48415C10.2833 9.96245 9.75 10.4285 9.75 11.25H8.25C8.25 9.88404 8.95659 9.34244 9.57783 8.86626C10.0652 8.49271 10.5 8.15941 10.5 7.5C10.5 6.675 9.825 6 9 6C8.175 6 7.5 6.675 7.5 7.5H6Z" fill="black"/>
</svg>
