<?xml version="1.0" encoding="utf-8"?>
<!-- Generator: Adobe Illustrator 25.2.1, SVG Export Plug-In . SVG Version: 6.00 Build 0)  -->
<svg version="1.1" id="Layer_1" xmlns="http://www.w3.org/2000/svg" xmlns:xlink="http://www.w3.org/1999/xlink" x="0px" y="0px"
	 viewBox="0 0 1200 400" style="enable-background:new 0 0 1200 400;" xml:space="preserve">
<style type="text/css">
	.st0{fill:#FF6F00;}
	.st1{fill:#F8F9FA;}
	.st2{fill:#FFA800;}
	.st3{fill:#D1D9E4;}
	.st4{fill:#221F1C;}
	.st5{fill:none;stroke:#000000;stroke-width:0.9563;stroke-miterlimit:10;}
</style>
<polygon class="st0" points="54.53,384.23 25.05,322.22 194.83,174.81 231.43,201.24 "/>
<polygon class="st0" points="882.25,28.49 967.7,214.79 1058.3,201.37 924.46,15.77 "/>
<path class="st1" d="M688.37,361.45l-286.7-182.34l-1.25-13.22l24.61-20.54l-10.88-16.76l43.13-35.43l16.73,9.89l25.83-21.96
	l289.65,168.65L688.37,361.45z"/>
<polygon class="st0" points="471.7,181.98 503.79,202.8 542.3,169.17 510.05,149.93 "/>
<polygon class="st2" points="590.57,251.89 718.16,330.48 770.29,272.97 645.04,200.24 "/>
<ellipse transform="matrix(1.091240e-03 -1 1 1.091240e-03 408.3878 802.2543)" class="st2" cx="605.76" cy="196.71" rx="10.61" ry="14.15"/>
<polygon class="st2" points="464.78,161.94 466.11,176.82 415.16,146.77 414.15,128.59 "/>
<polygon class="st3" points="418.76,132.45 458.71,100.31 508.11,126.82 464.41,159.91 "/>
<g>
	<path class="st4" d="M760.52,246.97c-0.55,0-1.1-0.14-1.61-0.44L485.88,86.56c-1.52-0.89-2.03-2.85-1.14-4.37s2.85-2.03,4.37-1.14
		l273.03,159.97c1.52,0.89,2.03,2.84,1.14,4.36C762.68,246.4,761.62,246.97,760.52,246.97z"/>
</g>
<g>
	<path class="st4" d="M690.76,337.48c-0.81,0-1.61-0.3-2.24-0.91c-1.26-1.23-1.27-3.25-0.04-4.51l77.23-78.6
		c1.24-1.26,3.25-1.27,4.51-0.04c1.26,1.23,1.27,3.25,0.04,4.51l-77.23,78.6C692.41,337.16,691.59,337.48,690.76,337.48z"/>
</g>
<g>
	<path class="st4" d="M753.3,266.61c-0.56,0-1.12-0.15-1.63-0.45l-103.44-61.74c-1.51-0.9-2.01-2.86-1.1-4.37
		c0.9-1.51,2.86-2.01,4.37-1.1l103.44,61.74c1.51,0.9,2.01,2.86,1.1,4.37C755.45,266.06,754.39,266.61,753.3,266.61z"/>
</g>
<g>
	<path class="st4" d="M703.59,322.34c-0.58,0-1.16-0.16-1.69-0.49l-102.64-64.15c-0.85-0.53-1.4-1.43-1.49-2.43
		c-0.09-1,0.3-1.98,1.04-2.65l52.92-47.71c1.31-1.18,3.32-1.08,4.5,0.23c1.18,1.31,1.08,3.33-0.23,4.5l-49.78,44.88l99.05,61.91
		c1.49,0.93,1.95,2.9,1.01,4.4C705.69,321.81,704.65,322.34,703.59,322.34z"/>
</g>
<g>
	<path class="st4" d="M591.73,223.71c-0.57,0-1.15-0.15-1.67-0.48L566,208.4c-1.5-0.92-1.97-2.89-1.04-4.39
		c0.93-1.5,2.89-1.97,4.39-1.04l24.06,14.83c1.5,0.92,1.97,2.89,1.04,4.39C593.85,223.18,592.8,223.71,591.73,223.71z"/>
</g>
<g>
	<path class="st4" d="M566.07,242.16c-0.56,0-1.11-0.15-1.62-0.44l-20.45-12.03c-0.88-0.51-1.45-1.42-1.56-2.42s0.28-2.01,1.03-2.69
		l16.84-15.24c1.04-0.94,2.58-1.09,3.78-0.37L584.15,221c0.86,0.52,1.43,1.41,1.53,2.41c0.1,1-0.27,1.99-1,2.67l-16.44,15.24
		C567.64,241.87,566.86,242.16,566.07,242.16z M550.99,226.39l14.66,8.62l11.58-10.73l-14.37-8.62L550.99,226.39z"/>
</g>
<g>
	<path class="st4" d="M691.16,351.61c-0.81,0-1.62-0.31-2.24-0.92c-1.25-1.24-1.27-3.26-0.03-4.51l84.77-85.95l-1.08-12.57
		c-0.15-1.75,1.15-3.3,2.91-3.45c1.75-0.15,3.3,1.15,3.45,2.91l1.2,14.03c0.08,0.93-0.25,1.85-0.91,2.51l-85.8,87
		C692.81,351.29,691.99,351.61,691.16,351.61z"/>
</g>
<g>
	<path class="st4" d="M759.72,282.65c-1.66,0-3.06-1.28-3.18-2.96l-1.6-22.05c-0.13-1.76,1.19-3.29,2.95-3.41
		c1.78-0.13,3.29,1.19,3.41,2.95l1.6,22.05c0.13,1.76-1.19,3.29-2.95,3.41C759.87,282.65,759.8,282.65,759.72,282.65z"/>
</g>
<g>
	<path class="st4" d="M661.58,280.75c-0.58,0-1.17-0.16-1.69-0.49l-15.34-9.62c-1.49-0.94-1.94-2.91-1.01-4.4
		c0.94-1.49,2.91-1.94,4.4-1.01l15.34,9.62c1.49,0.94,1.94,2.91,1.01,4.4C663.68,280.22,662.64,280.75,661.58,280.75z"/>
</g>
<g>
	<path class="st4" d="M695.41,284.74c-0.57,0-1.14-0.15-1.64-0.45l-28.29-16.98l-0.91,6.26c-0.25,1.74-1.87,2.96-3.61,2.7
		c-1.74-0.25-2.95-1.87-2.7-3.61l1.59-11c0.15-1.06,0.83-1.97,1.79-2.42c0.96-0.46,2.09-0.4,3.01,0.15l31.23,18.74l6-1.66
		l-49.25-30.09c-1.5-0.92-1.98-2.88-1.06-4.38c0.92-1.5,2.88-1.98,4.38-1.06l55.52,33.92c1.08,0.66,1.67,1.91,1.5,3.16
		c-0.18,1.26-1.08,2.29-2.31,2.63l-14.4,3.99C695.98,284.7,695.69,284.74,695.41,284.74z"/>
</g>
<g>
	<path class="st4" d="M710.74,280.42c-1.61,0-3-1.22-3.17-2.86l-1.03-9.83l-11.47-7.46c-1-0.65-1.55-1.8-1.44-2.99
		c0.12-1.19,0.89-2.21,2-2.65l2.49-0.99l-5.62-4.06l-7.82,2.79c-0.8,0.29-1.68,0.24-2.45-0.13l-1.45-0.69
		c-1.17-0.56-1.88-1.77-1.81-3.07c0.08-1.29,0.93-2.41,2.16-2.83l8.32-2.81l-6.61-4.52l-28.05,7.91c-1.69,0.47-3.46-0.51-3.94-2.2
		c-0.48-1.7,0.51-3.46,2.2-3.94l29.49-8.32c0.91-0.26,1.89-0.1,2.67,0.44l13.11,8.97c1,0.68,1.52,1.87,1.36,3.07
		c-0.1,0.76-0.47,1.43-1.02,1.93l7.89,5.71c0.94,0.68,1.44,1.82,1.29,2.98c-0.14,1.16-0.91,2.14-1.99,2.57l-2.15,0.85l7.58,4.92
		c0.81,0.52,1.33,1.39,1.43,2.34l1.19,11.34c0.18,1.75-1.09,3.32-2.84,3.5C710.97,280.41,710.85,280.42,710.74,280.42z"/>
</g>
<g>
	<path class="st4" d="M647.02,271.24c-0.26,0-0.52-0.03-0.78-0.1c-1.71-0.43-2.74-2.16-2.31-3.87l6.37-25.28
		c0.43-1.71,2.17-2.74,3.87-2.31c1.71,0.43,2.74,2.16,2.31,3.87l-6.37,25.28C649.74,270.27,648.44,271.24,647.02,271.24z"/>
</g>
<g>
	<path class="st4" d="M713.84,282.9c-0.55,0-1.11-0.14-1.62-0.44l-20.85-12.31c-1.52-0.9-2.02-2.85-1.13-4.37
		c0.89-1.52,2.85-2.02,4.37-1.13l20.85,12.31c1.52,0.9,2.02,2.85,1.13,4.37C715.99,282.34,714.93,282.9,713.84,282.9z"/>
</g>
<g>
	<path class="st4" d="M539.96,209.83c-0.58,0-1.17-0.16-1.69-0.48l-13.98-8.72c-0.85-0.53-1.4-1.43-1.49-2.43
		c-0.09-1,0.3-1.98,1.05-2.65l13.08-11.73c1.06-0.95,2.61-1.08,3.82-0.33l13.98,8.72c0.85,0.53,1.4,1.43,1.49,2.43
		c0.09,1-0.3,1.98-1.05,2.65l-13.08,11.73C541.49,209.56,540.73,209.83,539.96,209.83z M531.27,197.46l8.35,5.2l8.13-7.29l-8.35-5.2
		L531.27,197.46z"/>
</g>
<g>
	<path class="st4" d="M568.76,208.56c-0.84,0-1.68-0.33-2.31-0.99c-1.21-1.28-1.16-3.3,0.11-4.51l9.32-8.87
		c1.28-1.21,3.3-1.16,4.51,0.11c1.21,1.28,1.16,3.3-0.11,4.51l-9.32,8.87C570.34,208.26,569.55,208.56,568.76,208.56z"/>
</g>
<g>
	<path class="st4" d="M592.59,221.26c-0.8,0-1.59-0.3-2.21-0.89c-1.27-1.22-1.31-3.24-0.09-4.51l4.93-5.12l-18.64-11.51
		c-1.5-0.93-1.96-2.89-1.04-4.39c0.93-1.5,2.89-1.96,4.39-1.04l22,13.59c0.82,0.51,1.37,1.36,1.49,2.31
		c0.12,0.96-0.2,1.92-0.87,2.61l-7.67,7.97C594.26,220.93,593.42,221.26,592.59,221.26z"/>
</g>
<g>
	<path class="st4" d="M605.29,206.74c-5.31,0-9.63-3.65-9.63-8.14c0-0.91,0.18-1.81,0.52-2.67c0.59-1.47,2.27-2.18,3.74-1.58
		c1.47,0.59,2.18,2.27,1.58,3.74c-0.07,0.17-0.1,0.34-0.1,0.51c0,1.13,1.66,2.4,3.89,2.4s3.89-1.27,3.89-2.4s-1.66-2.4-3.89-2.4
		c-1.58,0-2.87-1.28-2.87-2.87s1.28-2.87,2.87-2.87c5.31,0,9.63,3.65,9.63,8.14C614.92,203.08,610.6,206.74,605.29,206.74z"/>
</g>
<g>
	<path class="st4" d="M489.45,175.53c-0.84,0-1.66-0.36-2.23-1.06c-1-1.23-0.81-3.04,0.42-4.03l25.41-20.6
		c1.23-1,3.04-0.81,4.03,0.42c1,1.23,0.81,3.04-0.42,4.03l-25.41,20.6C490.72,175.32,490.08,175.53,489.45,175.53z"/>
</g>
<g>
	<path class="st4" d="M512.45,188.46c-0.54,0-1.08-0.15-1.55-0.46l-19.85-12.78c-1.33-0.86-1.72-2.63-0.86-3.96
		c0.86-1.33,2.63-1.72,3.96-0.86l18.03,11.61l20.35-17.78l-14.04-8.35c-1.36-0.81-1.81-2.57-1-3.93c0.81-1.36,2.57-1.81,3.93-1
		l17.44,10.37c0.79,0.47,1.31,1.29,1.39,2.21c0.08,0.92-0.28,1.82-0.97,2.42l-24.96,21.8C513.8,188.22,513.13,188.46,512.45,188.46z
		"/>
</g>
<g>
	<path class="st4" d="M422.84,150.73c-0.51,0-1.03-0.14-1.5-0.43l-5.86-3.61c-1.35-0.83-1.77-2.6-0.94-3.95
		c0.83-1.35,2.6-1.77,3.95-0.94l5.86,3.61c1.35,0.83,1.77,2.6,0.94,3.95C424.75,150.24,423.81,150.73,422.84,150.73z"/>
</g>
<g>
	<path class="st4" d="M461.78,171.32c-1.58,0-2.87-1.28-2.87-2.87v-7.37c0-0.85,0.38-1.66,1.03-2.2l47.36-39.54
		c1.22-1.01,3.03-0.85,4.04,0.36c1.02,1.22,0.85,3.02-0.36,4.04l-46.33,38.68v6.02C464.65,170.04,463.37,171.32,461.78,171.32z"/>
</g>
<g>
	<path class="st4" d="M510.49,130.43c-0.52,0-1.05-0.14-1.52-0.44L457.7,97.81c-1.34-0.84-1.75-2.61-0.9-3.95s2.61-1.75,3.95-0.9
		l51.27,32.17c1.34,0.84,1.75,2.61,0.9,3.95C512.38,129.95,511.45,130.43,510.49,130.43z"/>
</g>
<g>
	<path class="st4" d="M417.88,147.72c-1.55,0-2.82-1.23-2.87-2.79l-0.3-11.28c-0.02-0.88,0.36-1.73,1.04-2.29l43.45-35.93
		c1.22-1.01,3.03-0.84,4.04,0.38c1.01,1.22,0.84,3.03-0.38,4.04l-42.37,35.04l0.26,9.88c0.04,1.58-1.21,2.9-2.79,2.94
		C417.93,147.72,417.91,147.72,417.88,147.72z"/>
</g>
<g>
	<path class="st4" d="M461.78,163.96c-0.53,0-1.06-0.15-1.54-0.45L418,136.59c-1.34-0.85-1.73-2.62-0.88-3.96
		c0.85-1.34,2.62-1.73,3.96-0.88l42.25,26.91c1.34,0.85,1.73,2.62,0.88,3.96C463.66,163.49,462.73,163.96,461.78,163.96z"/>
</g>
<g>
	<path class="st4" d="M398.86,171.32c-0.83,0-1.66-0.36-2.22-1.06c-1-1.23-0.82-3.03,0.41-4.04l28.76-23.45
		c1.23-1,3.03-0.82,4.04,0.41c1,1.23,0.82,3.03-0.41,4.04l-28.76,23.45C400.14,171.11,399.5,171.32,398.86,171.32z"/>
</g>
<g>
	<path class="st4" d="M477.27,107.58c-0.82,0-1.64-0.35-2.21-1.03c-1.01-1.22-0.85-3.03,0.37-4.04l17.89-14.88
		c1.22-1.01,3.03-0.85,4.04,0.37c1.01,1.22,0.85,3.03-0.37,4.04l-17.89,14.88C478.57,107.36,477.92,107.58,477.27,107.58z"/>
</g>
<g>
	<path class="st4" d="M685.05,344.37c-0.52,0-1.05-0.14-1.53-0.44l-275.13-173.8c-1.34-0.85-1.74-2.62-0.89-3.96
		c0.85-1.34,2.62-1.74,3.96-0.89l275.14,173.8c1.34,0.85,1.74,2.62,0.89,3.96C686.93,343.9,686,344.37,685.05,344.37z"/>
</g>
<g>
	<path class="st4" d="M684.76,356.89c-0.53,0-1.06-0.14-1.53-0.45L404.48,179.64c-1.34-0.85-1.73-2.62-0.89-3.96
		c0.85-1.34,2.62-1.73,3.96-0.89L686.3,351.6c1.34,0.85,1.73,2.62,0.89,3.96C686.64,356.42,685.71,356.89,684.76,356.89z"/>
</g>
<g>
	<path class="st4" d="M999.26,201.22c-16.9,0-32.58-9.37-40.49-24.79L896.36,54.7c-2.9-5.66-2.96-12.18-0.17-17.89
		c2.79-5.71,7.98-9.67,14.23-10.86c12.49-2.37,24.99,3.02,31.83,13.75l30.43,47.73l-11-18.42c-0.87-1.46-0.4-3.36,1.07-4.24
		c1.46-0.87,3.36-0.4,4.24,1.07l56.75,95.05c5.03,8.43,5.83,18.66,2.09,26.7c-3.21,6.91-9.26,11.41-17.02,12.67l-2.12,0.35
		C1004.2,201.02,1001.72,201.22,999.26,201.22z M916.24,31.57c-1.55,0-3.11,0.14-4.68,0.44c-4.32,0.82-7.9,3.55-9.83,7.5
		c-1.93,3.95-1.89,8.45,0.12,12.36l62.42,121.73c7.83,15.27,24.47,23.67,41.41,20.91l2.12-0.35c5.68-0.93,10.09-4.19,12.42-9.18
		c2.89-6.21,2.2-14.23-1.8-20.93l-20.12-33.69c0.56,3.4,0.13,6.95-1.3,10.21c-2.44,5.55-7.46,9.48-13.43,10.53
		c-12.59,2.21-25.38-3.71-31.84-14.74l-36.76-62.7c-0.86-1.47-0.37-3.36,1.1-4.23c1.47-0.86,3.36-0.37,4.23,1.1l36.76,62.7
		c5.16,8.81,15.39,13.54,25.45,11.78c3.99-0.7,7.21-3.23,8.85-6.94c1.63-3.71,1.32-7.79-0.86-11.21l-53.46-83.85
		C932.42,35.78,924.58,31.57,916.24,31.57z"/>
</g>
<g>
	<path class="st4" d="M1125.54,102.94c-0.11,0-0.21-0.01-0.32-0.02L968.44,86.71c-10.31-0.72-19.26-5.42-23.95-12.59
		c-3.36-5.14-4.15-10.9-2.23-16.24c3.9-10.86,14.74-15.9,33.08-15.42c0.07,0,0.14,0.01,0.2,0.01l35.17,3.26
		c3.5-0.44,7.96-0.46,13.62,0.19l130.3,11.22c1.29,0.11,2.33,1,2.69,2.17l5.93,0.55c9.43,0.17,20.24,4.99,21.81,15.24
		c0.67,4.38-0.88,8.79-4.39,12.4c-4.28,4.41-10.75,6.8-16.47,6.09l-142.25-18.01c-11.71-0.96-19.41-4.37-22.9-10.13
		c-3.24-5.35-1.59-10.78-1.11-12.08c0.16-0.57,0.51-1.49,1.3-2.5l-24.16-2.24c-20.38-0.52-25.16,6.22-27,11.33
		c-1.25,3.47-0.68,7.3,1.59,10.77c3.64,5.57,10.84,9.23,19.25,9.81c0.04,0,0.07,0.01,0.11,0.01l156.83,16.22
		c1.7,0.18,2.93,1.69,2.75,3.39C1128.45,101.76,1127.11,102.94,1125.54,102.94z M1003.91,55.02c-0.02,0.24-0.05,0.18-0.18,0.48
		c-0.05,0.12-1.38,3.54,0.65,6.81c2.41,3.89,8.68,6.35,18.14,7.11c0.05,0,0.09,0.01,0.14,0.01l142.31,18.01
		c3.8,0.47,8.33-1.24,11.27-4.27c1.23-1.27,3.22-3.88,2.72-7.15c-0.75-4.87-6.46-9.87-15.92-10c-0.08,0-0.16-0.01-0.24-0.01
		l-151.88-14.07C1006.3,52.63,1004.37,54.12,1003.91,55.02z M1003.91,54.91C1003.91,54.91,1003.91,54.91,1003.91,54.91
		S1003.91,54.91,1003.91,54.91z"/>
</g>
<path class="st5" d="M148.41,218.18"/>
<g>
	<path class="st4" d="M43.85,358.55c-9.01,0-17.46-2.46-23.28-8.14c-3.91-3.8-5.94-9.46-5.72-15.92c0.27-8.08,4.09-16.41,9.73-21.2
		l151.94-126.74c18.33-14.43,30.75-7.12,31.87-6.41c5.88,3.66,9.49,9.72,9.91,16.63c0.42,6.92-2.44,13.38-7.84,17.72l-108.44,87.23
		c-11.96,9.62-30.05,14.34-41.52,1.95c-0.1-0.1-0.19-0.21-0.27-0.33c-1.43-2.05-2.94-5.44-3.15-9.22L28.5,317.95
		c-4.37,3.71-7.34,10.29-7.56,16.74c-0.16,4.73,1.22,8.76,3.88,11.35c11.68,11.38,38.01,6.57,51.38-5.35l109.15-97.34
		c1.26-1.12,3.19-1.01,4.31,0.25c1.12,1.26,1.01,3.19-0.25,4.31L80.26,345.25C71.16,353.37,56.92,358.55,43.85,358.55z M65.13,299.7
		c8.83,9.3,23.29,5.13,33.06-2.73l108.44-87.23c3.84-3.09,5.87-7.68,5.57-12.6c-0.3-4.92-2.87-9.23-7.06-11.83
		c-0.03-0.02-0.06-0.04-0.08-0.05c-0.36-0.22-9.64-5.83-24.71,6.03l-25.44,21.22c0.57,1.24,0.25,2.76-0.87,3.66
		c-0.79,0.63-79.09,63.17-87.61,70.42C60.46,291.67,64.27,298.35,65.13,299.7z"/>
</g>
</svg>
