<?xml version="1.0" encoding="utf-8"?>
<!-- Generator: Adobe Illustrator 25.2.1, SVG Export Plug-In . SVG Version: 6.00 Build 0)  -->
<svg version="1.1" id="Layer_1" xmlns="http://www.w3.org/2000/svg" xmlns:xlink="http://www.w3.org/1999/xlink" x="0px" y="0px"
	 viewBox="0 0 1440 900" style="enable-background:new 0 0 1440 900;" xml:space="preserve">
<style type="text/css">
	.st0{fill:#FF6F00;}
	.st1{fill:#F8F9FA;}
	.st2{fill:#FFA800;}
	.st3{fill:#D1D9E4;}
	.st4{fill:#221F1C;}
	.st5{fill:none;stroke:#000000;stroke-width:0.5664;stroke-miterlimit:10;}
</style>
<g>
	<polygon class="st0" points="396.91,800.56 379.45,763.83 480.01,676.52 501.68,692.17 	"/>
	<polygon class="st0" points="887.17,589.86 937.78,700.2 991.43,692.25 912.17,582.32 	"/>
	<path class="st1" d="M772.33,787.07l-169.81-108l-0.74-7.83l14.58-12.17l-6.45-9.92l25.55-20.99l9.91,5.86l15.3-13.01l171.56,99.89
		L772.33,787.07z"/>
	<polygon class="st0" points="643.99,680.77 663.01,693.1 685.81,673.18 666.71,661.78 	"/>
	<polygon class="st2" points="714.4,722.18 789.97,768.72 820.85,734.66 746.67,691.58 	"/>
	
		<ellipse transform="matrix(1.091240e-03 -1 1 1.091240e-03 33.12 1412.1368)" class="st2" cx="723.4" cy="689.49" rx="6.28" ry="8.38"/>
	<polygon class="st2" points="639.9,668.89 640.69,677.71 610.51,659.91 609.91,649.14 	"/>
	<polygon class="st3" points="612.64,651.43 636.3,632.39 665.56,648.1 639.68,667.7 	"/>
	<g>
		<path class="st4" d="M815.06,719.26c-0.32,0-0.65-0.08-0.95-0.26L652.4,624.25c-0.9-0.53-1.2-1.69-0.68-2.59
			c0.53-0.9,1.69-1.2,2.59-0.67l161.71,94.75c0.9,0.53,1.2,1.68,0.67,2.58C816.34,718.92,815.71,719.26,815.06,719.26z"/>
	</g>
	<g>
		<path class="st4" d="M773.75,772.86c-0.48,0-0.96-0.18-1.32-0.54c-0.74-0.73-0.75-1.93-0.02-2.67l45.74-46.56
			c0.73-0.74,1.93-0.75,2.67-0.02c0.74,0.73,0.75,1.93,0.02,2.67l-45.74,46.56C774.72,772.68,774.24,772.86,773.75,772.86z"/>
	</g>
	<g>
		<path class="st4" d="M810.79,730.89c-0.33,0-0.66-0.09-0.97-0.27l-61.27-36.57c-0.9-0.53-1.19-1.69-0.65-2.59
			c0.54-0.9,1.7-1.19,2.59-0.65l61.27,36.57c0.9,0.54,1.19,1.69,0.65,2.59C812.06,730.56,811.43,730.89,810.79,730.89z"/>
	</g>
	<g>
		<path class="st4" d="M781.34,763.9c-0.34,0-0.69-0.09-1-0.29l-60.79-37.99c-0.5-0.31-0.83-0.85-0.88-1.44
			c-0.05-0.59,0.18-1.17,0.62-1.57l31.35-28.26c0.77-0.7,1.97-0.64,2.67,0.14c0.7,0.78,0.64,1.97-0.14,2.67l-29.48,26.58
			l58.67,36.67c0.89,0.55,1.15,1.72,0.6,2.6C782.59,763.59,781.97,763.9,781.34,763.9z"/>
	</g>
	<g>
		<path class="st4" d="M715.09,705.48c-0.34,0-0.68-0.09-0.99-0.28l-14.25-8.79c-0.89-0.55-1.16-1.71-0.62-2.6
			c0.55-0.89,1.71-1.16,2.6-0.62l14.25,8.79c0.89,0.55,1.16,1.71,0.62,2.6C716.34,705.17,715.72,705.48,715.09,705.48z"/>
	</g>
	<g>
		<path class="st4" d="M699.89,716.41c-0.33,0-0.66-0.09-0.96-0.26l-12.11-7.12c-0.52-0.3-0.86-0.84-0.92-1.44
			c-0.06-0.6,0.17-1.19,0.61-1.59l9.97-9.02c0.62-0.56,1.53-0.65,2.24-0.22l11.87,7.12c0.51,0.31,0.85,0.83,0.91,1.43
			c0.06,0.59-0.16,1.18-0.59,1.58l-9.74,9.02C700.82,716.24,700.36,716.41,699.89,716.41z M690.96,707.07l8.68,5.11l6.86-6.36
			l-8.51-5.11L690.96,707.07z"/>
	</g>
	<g>
		<path class="st4" d="M773.98,781.24c-0.48,0-0.96-0.18-1.33-0.54c-0.74-0.73-0.75-1.93-0.02-2.67l50.21-50.91l-0.64-7.44
			c-0.09-1.04,0.68-1.95,1.72-2.04c1.03-0.09,1.96,0.68,2.04,1.72l0.71,8.31c0.05,0.55-0.15,1.09-0.54,1.49l-50.82,51.53
			C774.96,781.05,774.47,781.24,773.98,781.24z"/>
	</g>
	<g>
		<path class="st4" d="M814.59,740.39c-0.98,0-1.81-0.76-1.88-1.75l-0.95-13.06c-0.08-1.04,0.71-1.95,1.75-2.02
			c1.05-0.08,1.95,0.71,2.02,1.75l0.95,13.06c0.08,1.04-0.71,1.95-1.75,2.02C814.68,740.39,814.63,740.39,814.59,740.39z"/>
	</g>
	<g>
		<path class="st4" d="M756.46,739.26c-0.34,0-0.69-0.09-1-0.29l-9.08-5.7c-0.88-0.55-1.15-1.72-0.6-2.6
			c0.55-0.88,1.72-1.15,2.6-0.6l9.08,5.7c0.88,0.55,1.15,1.72,0.6,2.6C757.71,738.95,757.09,739.26,756.46,739.26z"/>
	</g>
	<g>
		<path class="st4" d="M776.5,741.63c-0.34,0-0.68-0.09-0.97-0.27l-16.76-10.06l-0.54,3.71c-0.15,1.03-1.11,1.75-2.14,1.6
			c-1.03-0.15-1.75-1.11-1.6-2.14l0.94-6.52c0.09-0.63,0.49-1.16,1.06-1.44c0.57-0.27,1.24-0.24,1.78,0.09l18.5,11.1l3.55-0.99
			l-29.17-17.82c-0.89-0.54-1.17-1.71-0.63-2.6c0.54-0.89,1.71-1.17,2.6-0.63l32.89,20.09c0.64,0.39,0.99,1.13,0.89,1.87
			c-0.1,0.75-0.64,1.36-1.37,1.56l-8.53,2.37C776.84,741.6,776.67,741.63,776.5,741.63z"/>
	</g>
	<g>
		<path class="st4" d="M785.58,739.07c-0.96,0-1.78-0.72-1.88-1.69l-0.61-5.82l-6.8-4.42c-0.59-0.39-0.92-1.07-0.85-1.77
			c0.07-0.7,0.53-1.31,1.18-1.57l1.47-0.59l-3.33-2.41l-4.63,1.65c-0.47,0.17-0.99,0.14-1.45-0.08l-0.86-0.41
			c-0.69-0.33-1.12-1.05-1.07-1.82c0.05-0.77,0.55-1.43,1.28-1.68l4.93-1.67l-3.91-2.68l-16.62,4.69c-1,0.28-2.05-0.3-2.33-1.31
			c-0.28-1,0.3-2.05,1.31-2.33l17.47-4.93c0.54-0.15,1.12-0.06,1.58,0.26l7.77,5.31c0.59,0.4,0.9,1.11,0.81,1.82
			c-0.06,0.45-0.28,0.85-0.6,1.14l4.68,3.38c0.56,0.4,0.85,1.08,0.77,1.76c-0.09,0.68-0.54,1.27-1.18,1.52l-1.27,0.51l4.49,2.92
			c0.48,0.31,0.79,0.82,0.85,1.39l0.7,6.72c0.11,1.04-0.64,1.97-1.68,2.08C785.71,739.07,785.65,739.07,785.58,739.07z"/>
	</g>
	<g>
		<path class="st4" d="M747.84,733.63c-0.15,0-0.31-0.02-0.46-0.06c-1.01-0.26-1.62-1.28-1.37-2.29l3.78-14.97
			c0.26-1.01,1.28-1.63,2.29-1.37c1.01,0.26,1.62,1.28,1.37,2.29l-3.78,14.97C749.45,733.06,748.68,733.63,747.84,733.63z"/>
	</g>
	<g>
		<path class="st4" d="M787.41,740.54c-0.33,0-0.66-0.08-0.96-0.26l-12.35-7.29c-0.9-0.53-1.2-1.69-0.67-2.59
			c0.53-0.9,1.69-1.2,2.59-0.67l12.35,7.29c0.9,0.53,1.2,1.69,0.67,2.59C788.69,740.21,788.06,740.54,787.41,740.54z"/>
	</g>
	<g>
		<path class="st4" d="M684.43,697.26c-0.35,0-0.69-0.09-1-0.29l-8.28-5.16c-0.5-0.31-0.83-0.85-0.88-1.44
			c-0.05-0.59,0.18-1.17,0.62-1.57l7.75-6.95c0.63-0.56,1.55-0.64,2.26-0.2l8.28,5.16c0.5,0.31,0.83,0.85,0.88,1.44
			c0.05,0.59-0.18,1.17-0.62,1.57l-7.75,6.95C685.34,697.1,684.88,697.26,684.43,697.26z M679.28,689.94l4.94,3.08l4.82-4.32
			l-4.94-3.08L679.28,689.94z"/>
	</g>
	<g>
		<path class="st4" d="M701.48,696.51c-0.5,0-1-0.2-1.37-0.59c-0.72-0.76-0.69-1.95,0.07-2.67l5.52-5.25
			c0.76-0.72,1.95-0.69,2.67,0.07c0.72,0.76,0.69,1.95-0.07,2.67l-5.52,5.25C702.42,696.33,701.95,696.51,701.48,696.51z"/>
	</g>
	<g>
		<path class="st4" d="M715.6,704.03c-0.47,0-0.94-0.18-1.31-0.53c-0.75-0.72-0.77-1.92-0.05-2.67l2.92-3.03l-11.04-6.82
			c-0.89-0.55-1.16-1.71-0.61-2.6c0.55-0.89,1.71-1.16,2.6-0.61l13.03,8.05c0.49,0.3,0.81,0.8,0.88,1.37
			c0.07,0.57-0.12,1.13-0.51,1.55l-4.54,4.72C716.59,703.84,716.09,704.03,715.6,704.03z"/>
	</g>
	<g>
		<path class="st4" d="M723.12,695.43c-3.14,0-5.7-2.16-5.7-4.82c0-0.54,0.1-1.07,0.31-1.58c0.35-0.87,1.34-1.29,2.21-0.94
			c0.87,0.35,1.29,1.34,0.94,2.21c-0.04,0.1-0.06,0.2-0.06,0.3c0,0.67,0.99,1.42,2.3,1.42c1.32,0,2.3-0.75,2.3-1.42
			s-0.99-1.42-2.3-1.42c-0.94,0-1.7-0.76-1.7-1.7s0.76-1.7,1.7-1.7c3.14,0,5.7,2.16,5.7,4.82
			C728.83,693.27,726.27,695.43,723.12,695.43z"/>
	</g>
	<g>
		<path class="st4" d="M654.51,676.95c-0.49,0-0.99-0.21-1.32-0.63c-0.59-0.73-0.48-1.8,0.25-2.39l15.05-12.2
			c0.73-0.59,1.8-0.48,2.39,0.25c0.59,0.73,0.48,1.8-0.25,2.39l-15.05,12.2C655.26,676.82,654.89,676.95,654.51,676.95z"/>
	</g>
	<g>
		<path class="st4" d="M668.13,684.6c-0.32,0-0.64-0.09-0.92-0.27l-11.75-7.57c-0.79-0.51-1.02-1.56-0.51-2.35
			c0.51-0.79,1.56-1.02,2.35-0.51l10.68,6.88l12.05-10.53l-8.32-4.95c-0.81-0.48-1.07-1.52-0.59-2.33c0.48-0.81,1.52-1.07,2.33-0.59
			l10.33,6.14c0.47,0.28,0.77,0.76,0.82,1.31c0.05,0.54-0.16,1.08-0.57,1.43l-14.78,12.91C668.93,684.46,668.53,684.6,668.13,684.6z
			"/>
	</g>
	<g>
		<path class="st4" d="M615.06,662.25c-0.3,0-0.61-0.08-0.89-0.25l-3.47-2.14c-0.8-0.49-1.05-1.54-0.56-2.34
			c0.49-0.8,1.54-1.05,2.34-0.56l3.47,2.14c0.8,0.49,1.05,1.54,0.56,2.34C616.19,661.97,615.63,662.25,615.06,662.25z"/>
	</g>
	<g>
		<path class="st4" d="M638.12,674.45c-0.94,0-1.7-0.76-1.7-1.7v-4.36c0-0.5,0.22-0.98,0.61-1.3l28.05-23.42
			c0.72-0.6,1.79-0.5,2.39,0.22c0.6,0.72,0.5,1.79-0.22,2.39l-27.44,22.91v3.57C639.82,673.69,639.06,674.45,638.12,674.45z"/>
	</g>
	<g>
		<path class="st4" d="M666.97,650.23c-0.31,0-0.62-0.08-0.9-0.26l-30.37-19.06c-0.79-0.5-1.03-1.55-0.54-2.34s1.55-1.04,2.34-0.54
			l30.37,19.06c0.79,0.5,1.03,1.55,0.54,2.34C668.09,649.95,667.54,650.23,666.97,650.23z"/>
	</g>
	<g>
		<path class="st4" d="M612.12,660.47c-0.92,0-1.67-0.73-1.7-1.65l-0.18-6.68c-0.01-0.52,0.21-1.02,0.62-1.35l25.74-21.28
			c0.72-0.6,1.79-0.5,2.39,0.23c0.6,0.72,0.5,1.79-0.23,2.39l-25.1,20.76l0.16,5.85c0.02,0.94-0.72,1.72-1.65,1.74
			C612.15,660.47,612.14,660.47,612.12,660.47z"/>
	</g>
	<g>
		<path class="st4" d="M638.12,670.09c-0.31,0-0.63-0.09-0.91-0.27l-25.02-15.94c-0.79-0.5-1.02-1.55-0.52-2.35
			c0.5-0.79,1.55-1.02,2.35-0.52l25.02,15.94c0.79,0.5,1.02,1.55,0.52,2.35C639.23,669.81,638.68,670.09,638.12,670.09z"/>
	</g>
	<g>
		<path class="st4" d="M600.85,674.45c-0.49,0-0.98-0.21-1.32-0.63c-0.59-0.73-0.48-1.8,0.24-2.39l17.03-13.89
			c0.73-0.59,1.8-0.48,2.39,0.24c0.59,0.73,0.48,1.8-0.24,2.39l-17.03,13.89C601.61,674.33,601.23,674.45,600.85,674.45z"/>
	</g>
	<g>
		<path class="st4" d="M647.3,636.7c-0.49,0-0.97-0.21-1.31-0.61c-0.6-0.72-0.5-1.79,0.22-2.39l10.6-8.82
			c0.72-0.6,1.79-0.5,2.39,0.22c0.6,0.72,0.5,1.79-0.22,2.39l-10.6,8.82C648.07,636.57,647.68,636.7,647.3,636.7z"/>
	</g>
	<g>
		<path class="st4" d="M770.36,776.95c-0.31,0-0.62-0.09-0.91-0.26L606.49,673.75c-0.79-0.5-1.03-1.55-0.53-2.34
			c0.5-0.79,1.55-1.03,2.34-0.53l162.96,102.94c0.79,0.5,1.03,1.55,0.53,2.34C771.48,776.67,770.92,776.95,770.36,776.95z"/>
	</g>
	<g>
		<path class="st4" d="M770.19,784.36c-0.31,0-0.63-0.09-0.91-0.26l-165.1-104.72c-0.79-0.5-1.03-1.55-0.52-2.34
			c0.5-0.79,1.55-1.03,2.34-0.52l165.1,104.72c0.79,0.5,1.03,1.55,0.52,2.34C771.3,784.09,770.75,784.36,770.19,784.36z"/>
	</g>
	<g>
		<path class="st4" d="M956.47,692.16c-10.01,0-19.29-5.55-23.98-14.69l-36.97-72.1c-1.72-3.35-1.76-7.21-0.1-10.6
			c1.65-3.38,4.73-5.73,8.43-6.43c7.4-1.4,14.8,1.79,18.85,8.14l18.03,28.27l-6.52-10.91c-0.52-0.87-0.23-1.99,0.63-2.51
			c0.87-0.52,1.99-0.23,2.51,0.63l33.61,56.3c2.98,4.99,3.46,11.05,1.24,15.82c-1.9,4.09-5.48,6.76-10.08,7.51l-1.26,0.21
			C959.39,692.04,957.92,692.16,956.47,692.16z M907.3,591.68c-0.92,0-1.84,0.09-2.77,0.26c-2.56,0.49-4.68,2.1-5.82,4.44
			c-1.14,2.34-1.12,5.01,0.07,7.32l36.97,72.1c4.64,9.04,14.49,14.02,24.53,12.39l1.26-0.21c3.37-0.55,5.98-2.48,7.35-5.44
			c1.71-3.68,1.3-8.43-1.06-12.4l-11.92-19.96c0.33,2.02,0.08,4.11-0.77,6.05c-1.45,3.29-4.42,5.62-7.96,6.24
			c-7.46,1.31-15.03-2.2-18.86-8.73l-21.77-37.13c-0.51-0.87-0.22-1.99,0.65-2.5c0.87-0.51,1.99-0.22,2.5,0.65l21.77,37.13
			c3.06,5.22,9.12,8.02,15.07,6.97c2.36-0.41,4.27-1.91,5.24-4.11c0.97-2.2,0.78-4.62-0.51-6.64l-31.67-49.66
			C916.88,594.17,912.24,591.68,907.3,591.68z"/>
	</g>
	<g>
		<path class="st4" d="M1031.26,633.95c-0.06,0-0.13,0-0.19-0.01l-92.86-9.61c-6.11-0.42-11.41-3.21-14.19-7.45
			c-1.99-3.04-2.46-6.46-1.32-9.62c2.31-6.43,8.73-9.42,19.59-9.13c0.04,0,0.08,0,0.12,0.01l20.83,1.93
			c2.07-0.26,4.71-0.27,8.07,0.11l77.18,6.64c0.77,0.07,1.38,0.59,1.59,1.29l3.51,0.33c5.58,0.1,11.99,2.96,12.92,9.03
			c0.4,2.6-0.52,5.2-2.6,7.34c-2.54,2.61-6.37,4.03-9.75,3.61l-84.26-10.67c-6.93-0.57-11.5-2.59-13.56-6
			c-1.92-3.17-0.94-6.39-0.66-7.15c0.09-0.34,0.3-0.88,0.77-1.48l-14.31-1.33c-12.07-0.31-14.9,3.68-15.99,6.71
			c-0.74,2.06-0.4,4.32,0.94,6.38c2.16,3.3,6.42,5.47,11.4,5.81c0.02,0,0.04,0,0.06,0.01l92.89,9.61c1.01,0.1,1.74,1,1.63,2.01
			C1032.98,633.25,1032.19,633.95,1031.26,633.95z M959.22,605.57c-0.01,0.14-0.03,0.11-0.11,0.29c-0.03,0.07-0.82,2.1,0.38,4.03
			c1.42,2.3,5.14,3.76,10.74,4.21c0.03,0,0.05,0,0.08,0.01l84.29,10.67c2.25,0.28,4.93-0.74,6.67-2.53c0.73-0.75,1.91-2.3,1.61-4.24
			c-0.44-2.89-3.82-5.85-9.43-5.92c-0.05,0-0.1,0-0.14-0.01l-89.96-8.33C960.64,604.15,959.49,605.04,959.22,605.57z M959.22,605.5
			C959.22,605.5,959.22,605.5,959.22,605.5S959.22,605.5,959.22,605.5z"/>
	</g>
	<path class="st5" d="M452.52,702.21"/>
	<g>
		<path class="st4" d="M390.58,785.35c-5.34,0-10.34-1.46-13.79-4.82c-2.31-2.25-3.52-5.6-3.39-9.43c0.16-4.79,2.42-9.72,5.76-12.56
			l89.99-75.07c10.86-8.55,18.22-4.22,18.88-3.8c3.48,2.17,5.62,5.76,5.87,9.85c0.25,4.1-1.44,7.92-4.64,10.5l-64.23,51.66
			c-7.08,5.7-17.8,8.49-24.59,1.15c-0.06-0.06-0.11-0.13-0.16-0.2c-0.85-1.22-1.74-3.22-1.87-5.46l-16.92,14.12
			c-2.59,2.2-4.35,6.1-4.48,9.92c-0.09,2.8,0.72,5.19,2.3,6.72c6.92,6.74,22.51,3.89,30.43-3.17l64.65-57.66
			c0.74-0.66,1.89-0.6,2.55,0.15c0.66,0.74,0.6,1.89-0.15,2.55l-64.65,57.66C406.76,782.28,398.33,785.35,390.58,785.35z
			 M403.19,750.49c5.23,5.51,13.8,3.04,19.58-1.62L487,697.21c2.27-1.83,3.48-4.55,3.3-7.46c-0.18-2.91-1.7-5.47-4.18-7.01
			c-0.02-0.01-0.03-0.02-0.05-0.03c-0.21-0.13-5.71-3.46-14.63,3.57l-15.07,12.57c0.34,0.74,0.15,1.64-0.51,2.17
			c-0.47,0.37-46.84,37.41-51.89,41.71C400.42,745.73,402.68,749.69,403.19,750.49z"/>
	</g>
</g>
</svg>
